<mxfile host="app.diagrams.net" modified="2024-04-07T07:58:35.705Z" agent="Mozilla/5.0 (Macintosh; Intel Mac OS X 10_15_7) AppleWebKit/537.36 (KHTML, like Gecko) Chrome/121.0.0.0 Safari/537.36" version="24.1.0" etag="rPYUBkCgE7vvQzqLzfsU" type="github">
  <diagram name="第 1 页" id="Zqn69nHAaQLIHZz4OZMA">
    <mxGraphModel>
      <root>
        <mxCell id="0" />
        <mxCell id="1" parent="0" />
      </root>
    </mxGraphModel>
  </diagram>
</mxfile>
